# MagicaVoxel @ Ephtracy

# group
o 

# material
mtllib lv01-floor-blue.mtl
usemtl palette

# normals
vn -1 0 0
vn 1 0 0
vn 0 0 1
vn 0 0 -1
vn 0 -1 0
vn 0 1 0

# texcoords
vt 0.611328 0.5
vt 0.994141 0.5

# verts
v 0 2 0
v 0 2 -0.8
v 0 5.2 0
v 0 5.2 -0.8
v 3.2 2 0
v 3.2 2 -0.8
v 3.2 5.2 0
v 3.2 5.2 -0.8
v 0 2 0
v 0 5.2 0
v 0.1 2.1 0
v 0.1 5.1 0
v 3.1 2.1 0
v 3.1 5.1 0
v 3.2 2 0
v 3.2 5.2 0
v 0 2 -0.8
v 0 5.2 -0.8
v 0.1 2.1 -0.8
v 0.1 5.1 -0.8
v 3.1 2.1 -0.8
v 3.1 5.1 -0.8
v 3.2 2 -0.8
v 3.2 5.2 -0.8
v 0 2 0
v 3.2 2 0
v 0 2 -0.8
v 3.2 2 -0.8
v 0 5.2 0
v 3.2 5.2 0
v 0 5.2 -0.8
v 3.2 5.2 -0.8

# faces
f 3/1/1 2/1/1 1/1/1
f 4/1/1 2/1/1 3/1/1
f 5/1/2 6/1/2 7/1/2
f 7/1/2 6/1/2 8/1/2
f 11/1/3 10/1/3 9/1/3
f 12/1/3 10/1/3 11/1/3
f 13/1/3 11/1/3 9/1/3
f 13/2/3 12/2/3 11/2/3
f 14/1/3 10/1/3 12/1/3
f 14/2/3 12/2/3 13/2/3
f 15/1/3 13/1/3 9/1/3
f 15/1/3 14/1/3 13/1/3
f 16/1/3 10/1/3 14/1/3
f 16/1/3 14/1/3 15/1/3
f 17/1/4 18/1/4 19/1/4
f 19/1/4 18/1/4 20/1/4
f 17/1/4 19/1/4 21/1/4
f 19/2/4 20/2/4 21/2/4
f 20/1/4 18/1/4 22/1/4
f 21/2/4 20/2/4 22/2/4
f 17/1/4 21/1/4 23/1/4
f 21/1/4 22/1/4 23/1/4
f 22/1/4 18/1/4 24/1/4
f 23/1/4 22/1/4 24/1/4
f 27/1/5 26/1/5 25/1/5
f 28/1/5 26/1/5 27/1/5
f 29/1/6 30/1/6 31/1/6
f 31/1/6 30/1/6 32/1/6
